 ######## ######## ######## ##          ######## ########  ######## ######## 
 ##       ##       ##       ##          ##       ##     ## ##       ##       
 ##       ##       ##       ##          ##       ##     ## ##       ##       
 ######   ######   ######   ##          ######   ########  ######   ######   
 ##       ##       ##       ##          ##       ##   ##   ##       ##       
 ##       ##       ##       ##          ##       ##    ##  ##       ##       
 ##       ######## ######## ########    ##       ##     ## ######## ########

 Genre:Horror
 Language:English
 IMDb:  http://www.imdb.com/title/tt1640569/
 Source:DVDSCR Thanks!


 Format : MPEG-4
 Format profile : Base Media
 Codec ID : isom
 File size : 1.20 GiB
 Duration : 1h 37mn
 Overall bit rate : 1 751 Kbps


 Video
 Format profile : High@L4.1
 Format settings, CABAC : Yes
 Format settings, ReFrames : 3 frames
 Codec ID : avc1
 Codec ID/Info : Advanced Video Coding
 Duration : 1h 37mn
 Bit rate mode : Variable
 Bit rate : 1 500 Kbps
 Maximum bit rate : 9 940 Kbps
 Width : 720 pixels
 Height : 384 pixels
 Display aspect ratio : 1.875
 Frame rate mode : Constant
 Frame rate : 23.976 fps
 Color space : YUV
 Chroma subsampling : 4:2:0
 Bit depth : 8 bits
 Scan type : Progressive
 Bits/(Pixel*Frame) : 0.226
 Stream size : 1.02 GiB (85%)
 Writing library : x264


 Audio
 ID : 2
 Format : AAC
 Format/Info : Advanced Audio Codec
 Format version : Version 4
 Format profile : LC
 Format settings, SBR : No
 Codec ID : 40
 Duration : 1h 37mn
 Bit rate mode : Variable
 Bit rate : 256 Kbps
 Maximum bit rate : 373 Kbps
 Channel(s) : 2 channels
 Channel positions : Front: L R
 Sampling rate : 48.0 KHz
 Stream size : 179 MiB (15%)
 Encoded date : UTC 2011-04-19 00:14:05
 Tagged date : UTC 2011-04-19 00:14:14


 Plot:
 George Rossi, who immigrated to the US and served in the Vietnam war, is now a   Superintendent of a Queens apartment building. He finds himself quickly slipping into a depraved world which is fueled by the tenants of the building.

 ######## ######## ######## ##          ######## ########  ######## ######## 
 ##       ##       ##       ##          ##       ##     ## ##       ##       
 ##       ##       ##       ##          ##       ##     ## ##       ##       
 ######   ######   ######   ##          ######   ########  ######   ######   
 ##       ##       ##       ##          ##       ##   ##   ##       ##       
 ##       ##       ##       ##          ##       ##    ##  ##       ##       
 ##       ######## ######## ########    ##       ##     ## ######## ########